<svg width="32" height="33" viewBox="0 0 32 33" fill="none" xmlns="http://www.w3.org/2000/svg">
<g opacity="0.4">
<path fill-rule="evenodd" clip-rule="evenodd" d="M16 32.5C24.8366 32.5 32 25.3366 32 16.5C32 7.66344 24.8366 0.5 16 0.5C7.16344 0.5 0 7.66344 0 16.5C0 25.3366 7.16344 32.5 16 32.5ZM12.9193 12.379C12.9193 10.4134 14.4705 8.82 16.3839 8.82C18.2974 8.82 19.8485 10.4134 19.8485 12.379C19.8485 14.3446 18.2974 15.938 16.3839 15.938C14.4705 15.938 12.9193 14.3446 12.9193 12.379ZM9.85592 20.621C9.85592 18.6554 11.4071 17.0619 13.3205 17.0619H19.4473C21.3608 17.0619 22.9119 18.6554 22.9119 20.621C22.9119 22.5866 21.3608 24.18 19.4473 24.18H13.3205C11.4071 24.18 9.85592 22.5866 9.85592 20.621Z" fill="#846F8A"/>
</g>
</svg>
