<svg width="24" height="24" viewBox="0 0 24 24" fill="none" xmlns="http://www.w3.org/2000/svg">
<path d="M4.92881 19.0708C4.54016 18.6821 4.54016 18.052 4.92881 17.6634L17.6635 4.92864C18.0522 4.53999 18.6823 4.53999 19.0709 4.92864C19.4596 5.31728 19.4596 5.94741 19.0709 6.33605L6.33622 19.0708C5.94757 19.4594 5.31745 19.4594 4.92881 19.0708Z" fill="#FC5F7E"/>
<path d="M19.0712 19.0708C19.4598 18.6821 19.4598 18.052 19.0712 17.6634L6.33648 4.92864C5.94783 4.53999 5.31771 4.53999 4.92906 4.92864C4.54041 5.31728 4.54041 5.94741 4.92906 6.33605L17.6638 19.0708C18.0524 19.4594 18.6825 19.4594 19.0712 19.0708Z" fill="#FC5F7E"/>
</svg>
