<svg width="30" height="30" viewBox="0 0 30 30" fill="none" xmlns="http://www.w3.org/2000/svg">
<path d="M15 30C23.2843 30 30 23.2843 30 15C30 6.71573 23.2843 0 15 0C6.71573 0 0 6.71573 0 15C0 23.2843 6.71573 30 15 30Z" fill="white"/>
<path d="M20.9205 9.0795C21.3598 9.51884 21.3598 10.2312 20.9205 10.6705L16.5913 15L20.9205 19.3295C21.3232 19.7322 21.3568 20.3643 21.0212 20.8053L20.9205 20.9205C20.4812 21.3598 19.7689 21.3598 19.3295 20.9205L15 16.5913L10.6705 20.9205C10.2312 21.3598 9.51884 21.3598 9.0795 20.9205C8.64017 20.4812 8.64017 19.7689 9.0795 19.3295L13.4088 15L9.0795 10.6705C8.67678 10.2678 8.64322 9.63567 8.97882 9.19471L9.0795 9.0795C9.51884 8.64017 10.2312 8.64017 10.6705 9.0795L15 13.4088L19.3295 9.0795C19.7689 8.64017 20.4812 8.64017 20.9205 9.0795Z" fill="black"/>
</svg>
