<svg width="20" height="21" viewBox="0 0 20 21" fill="none" xmlns="http://www.w3.org/2000/svg">
<rect y="0.5" width="20" height="20" rx="7.27273" fill="#BA94CF"/>
<path d="M10.6818 5.72729C10.6818 5.54646 10.6099 5.37304 10.4821 5.24517C10.3542 5.11731 10.1808 5.04547 9.99996 5.04547C9.81913 5.04547 9.6457 5.11731 9.51784 5.24517C9.38997 5.37304 9.31814 5.54646 9.31814 5.72729V6.40911C9.31814 6.58994 9.38997 6.76336 9.51784 6.89123C9.6457 7.01909 9.81913 7.09093 9.99996 7.09093C10.1808 7.09093 10.3542 7.01909 10.4821 6.89123C10.6099 6.76336 10.6818 6.58994 10.6818 6.40911V5.72729ZM13.857 7.60706C13.9812 7.47847 14.0499 7.30624 14.0484 7.12747C14.0468 6.9487 13.9751 6.77769 13.8487 6.65128C13.7223 6.52486 13.5513 6.45316 13.3725 6.4516C13.1937 6.45005 13.0215 6.51877 12.8929 6.64297L12.4109 7.12502C12.2867 7.25361 12.2179 7.42584 12.2195 7.60461C12.221 7.78338 12.2928 7.95439 12.4192 8.0808C12.5456 8.20722 12.7166 8.27892 12.8954 8.28048C13.0741 8.28203 13.2464 8.21331 13.375 8.08911L13.857 7.60706ZM15.4545 10.5C15.4545 10.6808 15.3827 10.8543 15.2548 10.9821C15.1269 11.11 14.9535 11.1818 14.7727 11.1818H14.0909C13.91 11.1818 13.7366 11.11 13.6087 10.9821C13.4809 10.8543 13.409 10.6808 13.409 10.5C13.409 10.3192 13.4809 10.1458 13.6087 10.0179C13.7366 9.89003 13.91 9.8182 14.0909 9.8182H14.7727C14.9535 9.8182 15.1269 9.89003 15.2548 10.0179C15.3827 10.1458 15.4545 10.3192 15.4545 10.5ZM6.62496 8.08911C6.68785 8.15423 6.76309 8.20617 6.84627 8.2419C6.92946 8.27764 7.01892 8.29645 7.10945 8.29723C7.19999 8.29802 7.28977 8.28077 7.37356 8.24649C7.45735 8.2122 7.53348 8.16158 7.5975 8.09756C7.66152 8.03354 7.71214 7.95741 7.74643 7.87362C7.78071 7.78983 7.79796 7.70005 7.79717 7.60952C7.79639 7.51898 7.77758 7.42952 7.74184 7.34633C7.70611 7.26315 7.65417 7.18791 7.58905 7.12502L7.107 6.64297C6.97841 6.51877 6.80618 6.45005 6.62741 6.4516C6.44864 6.45316 6.27763 6.52486 6.15122 6.65128C6.0248 6.77769 5.95309 6.9487 5.95154 7.12747C5.94999 7.30624 6.01871 7.47847 6.14291 7.60706L6.62496 8.08911V8.08911ZM6.59086 10.5C6.59086 10.6808 6.51903 10.8543 6.39116 10.9821C6.2633 11.11 6.08988 11.1818 5.90905 11.1818H5.22723C5.0464 11.1818 4.87298 11.11 4.74511 10.9821C4.61724 10.8543 4.54541 10.6808 4.54541 10.5C4.54541 10.3192 4.61724 10.1458 4.74511 10.0179C4.87298 9.89003 5.0464 9.8182 5.22723 9.8182H5.90905C6.08988 9.8182 6.2633 9.89003 6.39116 10.0179C6.51903 10.1458 6.59086 10.3192 6.59086 10.5ZM8.63632 14.5909V13.9091H11.3636V14.5909C11.3636 14.9526 11.2199 15.2994 10.9642 15.5552C10.7085 15.8109 10.3616 15.9546 9.99996 15.9546C9.6383 15.9546 9.29145 15.8109 9.03572 15.5552C8.77999 15.2994 8.63632 14.9526 8.63632 14.5909V14.5909ZM11.3636 13.2273C11.3738 12.9955 11.5054 12.7868 11.6888 12.6416C12.1338 12.2906 12.4584 11.8098 12.6176 11.2658C12.7767 10.7218 12.7623 10.1418 12.5766 9.60638C12.3909 9.07092 12.0429 8.60664 11.5812 8.27805C11.1194 7.94946 10.5667 7.7729 9.99996 7.7729C9.4332 7.7729 8.88053 7.94946 8.41875 8.27805C7.95698 8.60664 7.60904 9.07092 7.4233 9.60638C7.23756 10.1418 7.22325 10.7218 7.38236 11.2658C7.54146 11.8098 7.86608 12.2906 8.31109 12.6416C8.49518 12.7868 8.62609 12.9955 8.63564 13.2273H11.3643H11.3636Z" fill="white"/>
</svg>
